<?xml version="1.0" standalone="no"?><!DOCTYPE svg PUBLIC "-//W3C//DTD SVG 1.1//EN" "http://www.w3.org/Graphics/SVG/1.1/DTD/svg11.dtd"><svg t="1625919586066" class="icon" viewBox="0 0 1024 1024" version="1.1" xmlns="http://www.w3.org/2000/svg" p-id="4987" xmlns:xlink="http://www.w3.org/1999/xlink" width="200" height="200"><defs><style type="text/css"></style></defs><path d="M716.787815 307.242647h51.196954v51.196954h-51.196954V307.242647zM716.787815 409.636555h51.196954v51.196953h-51.196954V409.636555zM716.787815 512.030462h51.196954v51.196954h-51.196954v-51.196954zM716.787815 614.42437h51.196954v51.196954h-51.196954v-51.196954zM716.787815 819.212185h51.196954v51.196954h-51.196954v-51.196954zM716.787815 716.818277h51.196954v51.196954h-51.196954v-51.196954zM307.212185 307.242647h51.196954v51.196954H307.212185V307.242647zM307.212185 409.636555h51.196954v51.196953H307.212185V409.636555zM307.212185 512.030462h51.196954v51.196954H307.212185v-51.196954zM307.212185 614.42437h51.196954v51.196954H307.212185v-51.196954zM307.212185 819.212185h51.196954v51.196954H307.212185v-51.196954zM307.212185 716.818277h51.196954v51.196954H307.212185v-51.196954zM204.818277 307.242647h51.196954v51.196954H204.818277V307.242647zM204.818277 409.636555h51.196954v51.196953H204.818277V409.636555zM204.818277 512.030462h51.196954v51.196954H204.818277v-51.196954zM204.818277 614.42437h51.196954v51.196954H204.818277v-51.196954zM204.818277 819.212185h51.196954v51.196954H204.818277v-51.196954zM204.818277 716.818277h51.196954v51.196954H204.818277v-51.196954zM409.606092 307.242647h51.196954v51.196954H409.606092V307.242647zM409.606092 409.636555h51.196954v51.196953H409.606092V409.636555zM409.606092 512.030462h51.196954v51.196954H409.606092v-51.196954zM409.606092 614.42437h51.196954v51.196954H409.606092v-51.196954zM409.606092 819.212185h51.196954v51.196954H409.606092v-51.196954zM409.606092 716.818277h51.196954v51.196954H409.606092v-51.196954z" fill="#5680d9" p-id="4988"></path><path d="M947.174107 972.803046H921.57563V281.64417c0-39.063276-29.028673-79.304081-66.095267-91.693744L614.393908 109.571209V25.608204a25.598477 25.598477 0 0 0-32.970839-24.523341L118.500213 139.982199C80.768058 151.296726 51.227416 191.025562 51.227416 230.396019v742.35583H25.628939a25.598477 25.598477 0 0 0 0 51.196954h921.545168a25.598477 25.598477 0 0 0 0-51.196954zM839.302126 238.536335c16.280631 5.426877 31.076551 25.956856 31.07655 43.107835V972.803046h-255.984768V163.583995l224.908218 74.95234zM102.42437 230.447216c0-16.843798 14.693526-36.554625 30.820566-41.367138L563.196954 60.063754V972.803046H102.42437V230.447216z" fill="#5680d9" p-id="4989"></path></svg>