<?xml version="1.0" standalone="no"?><!DOCTYPE svg PUBLIC "-//W3C//DTD SVG 1.1//EN" "http://www.w3.org/Graphics/SVG/1.1/DTD/svg11.dtd"><svg t="1627824618800" class="icon" viewBox="0 0 1024 1024" version="1.1" xmlns="http://www.w3.org/2000/svg" p-id="3638" xmlns:xlink="http://www.w3.org/1999/xlink" width="200" height="200"><defs><style type="text/css"></style></defs><path d="M847.4624 101.8368C947.6608 117.5552 1024 199.1168 1024 297.2672V825.856C1024 935.2704 929.1264 1024 812.1344 1024H211.8656C94.8736 1024 0 935.2704 0 825.8048V297.2672C0 200.6016 74.5984 117.9648 176.5376 101.888v67.4816c-60.928 14.6944-105.9328 66.4064-105.9328 128v528.4864c0 35.0208 14.848 68.608 41.3696 93.44a146.3296 146.3296 0 0 0 99.84 38.7072h600.32c78.0288 0 141.2608-59.1872 141.2608-132.1472V297.2672c0-60.2112-43.5712-112.8448-105.984-127.9488V101.888z m-378.5216 619.008a46.7968 46.7968 0 0 1-62.6688 0l-146.1248-135.4752a39.5264 39.5264 0 0 1-13.0048-29.0304c0-10.9056 4.7104-21.4016 13.0048-29.0304a46.7968 46.7968 0 0 1 62.6176 0l114.7904 106.3936 240.128-222.5664a46.7968 46.7968 0 0 1 62.6176 0c8.2944 7.68 12.9536 18.1248 12.9536 29.0304a39.5264 39.5264 0 0 1-12.9536 29.0816l-271.4112 251.5968zM282.4704 0c19.5072 0 35.328 14.7968 35.328 33.024v165.1712c0 18.2272-15.8208 33.024-35.328 33.024-19.456 0-35.328-14.7968-35.328-33.024V33.024c0-8.704 3.7376-17.152 10.3936-23.3472A36.608 36.608 0 0 1 282.4704 0z m459.0592 0c19.456 0 35.328 14.7968 35.328 33.024v165.1712c0 18.2272-15.872 33.024-35.328 33.024-19.5072 0-35.328-14.7968-35.328-33.024V33.024c0-18.2272 15.8208-33.024 35.328-33.024zM388.4032 99.072h247.1936v66.048H388.4032v-66.048z" fill="#5680d9" p-id="3639"></path></svg>