<?xml version="1.0" standalone="no"?><!DOCTYPE svg PUBLIC "-//W3C//DTD SVG 1.1//EN" "http://www.w3.org/Graphics/SVG/1.1/DTD/svg11.dtd"><svg t="1628435230721" class="icon" viewBox="0 0 1024 1024" version="1.1" xmlns="http://www.w3.org/2000/svg" p-id="9807" xmlns:xlink="http://www.w3.org/1999/xlink" width="200" height="200"><defs><style type="text/css"></style></defs><path d="M408.064 919.04H201.216c-39.936 0-72.192-32.256-72.192-72.192V175.104c0-39.936 32.256-72.192 72.192-72.192h619.52c39.936 0 72.192 32.256 72.192 72.192v284.16c0 17.408 13.824 31.232 31.232 31.232s31.232-13.824 31.232-31.232V175.104c0-73.728-60.416-134.144-134.144-134.144H201.216C127.488 40.96 67.072 101.376 67.072 175.104v672.256c0 73.728 60.416 134.144 134.144 134.144h206.848c17.408 0 30.72-13.312 31.232-31.232 0-17.408-13.824-31.232-31.232-31.232z" p-id="9808" fill="#5680d9"></path><path d="M305.152 340.992h362.496c16.896 0 30.72-13.824 31.232-31.232 0-17.408-13.824-31.232-31.232-31.232H305.152c-17.408 0.512-31.232 14.336-31.232 31.232 0 17.408 13.824 31.232 31.232 31.232zM303.616 573.44h365.568c17.408 0 30.72-13.312 31.232-31.232 0-17.408-13.824-31.232-31.232-31.232H303.616c-17.408 0.512-31.232 14.336-31.232 31.232 0 17.408 13.824 31.232 31.232 31.232zM940.544 635.904l-36.352-36.352c-22.016-22.016-58.368-22.016-80.384 0l-266.24 266.24V983.04h116.736l266.24-266.752c22.016-22.528 22.016-58.368 0-80.384z m-321.536 285.184v-29.184l244.224-244.224 29.184 29.184-244.224 244.224h-29.184z" p-id="9809" fill="#5680d9"></path></svg>