<?xml version="1.0" standalone="no"?><!DOCTYPE svg PUBLIC "-//W3C//DTD SVG 1.1//EN" "http://www.w3.org/Graphics/SVG/1.1/DTD/svg11.dtd"><svg t="1628334058470" class="icon" viewBox="0 0 1024 1024" version="1.1" xmlns="http://www.w3.org/2000/svg" p-id="965" xmlns:xlink="http://www.w3.org/1999/xlink" width="200" height="200"><defs><style type="text/css"></style></defs><path d="M512 74.667C270.933 74.667 74.667 270.933 74.667 512S270.933 949.333 512 949.333 949.333 753.067 949.333 512 753.067 74.667 512 74.667z m0 810.666C307.2 885.333 138.667 716.8 138.667 512S307.2 138.667 512 138.667 885.333 307.2 885.333 512 716.8 885.333 512 885.333z" p-id="966" fill="#0cc524"></path><path d="M701.867 381.867L448 637.867 322.133 512c-12.8-12.8-32-12.8-44.8 0-12.8 12.8-12.8 32 0 44.8l149.334 149.333c6.4 6.4 14.933 8.534 23.466 8.534s17.067-2.134 23.467-8.534L750.933 428.8c12.8-12.8 12.8-32 0-44.8-14.933-12.8-36.266-12.8-49.066-2.133z" p-id="967" fill="#0cc524"></path></svg>